<svg xmlns="http://www.w3.org/2000/svg" xmlns:xlink="http://www.w3.org/1999/xlink"><symbol viewBox="0 0 24 24" id="badge-ECO" xmlns="http://www.w3.org/2000/svg"><g fill="none" fill-rule="evenodd"><path d="M20.572 24.006H4.499V2.034l.249-.043c.34-.061.793-.255 1.367-.501C7.488.9 9.565.01 12.497.01c2.994 0 5.166.92 6.603 1.53.53.224.948.401 1.225.45l.247.044v21.972z" fill="#99D7C2"/><path d="M5.099 23.407h14.874V2.52c-.302-.088-.67-.243-1.107-.43C17.474 1.5 15.368.609 12.498.609c-2.81 0-4.818.862-6.147 1.432-.49.21-.899.385-1.252.483v20.884z" fill="#FFFBC8"/><path d="M7.088 17.183l-.42-.462 1.28-.663.511.618-1.371.507zm.309 1.213v.854h1.546v1.132H7.397v.885H9.03V22.4H6.025v-5.135H9.03v1.132H7.397zm5.915.615c-.325-.377-.714-.562-1.19-.562-.824 0-1.418.592-1.418 1.417 0 .793.602 1.378 1.419 1.378.452 0 .832-.169 1.19-.539v1.579c-.643.207-.857.253-1.215.253-1.593 0-2.83-1.17-2.83-2.679 0-1.501 1.245-2.703 2.8-2.703.411 0 .744.07 1.244.263v1.593zm3.085-1.901c-1.673 0-2.926 1.177-2.926 2.732 0 1.563 1.253 2.742 2.926 2.742 1.673 0 2.925-1.179 2.925-2.742s-1.252-2.732-2.925-2.732m0 1.292c.824 0 1.491.648 1.491 1.44 0 .801-.667 1.448-1.491 1.448-.824 0-1.492-.647-1.492-1.448 0-.792.668-1.44 1.492-1.44m-9.361-5.88c-.578 0-1.15.446-1.15 1.638s.572 1.64 1.15 1.64c.576 0 1.15-.447 1.15-1.64s-.574-1.639-1.15-1.639m-.46 1.64c0-.282.03-1.059.46-1.059s.46.777.46 1.058c0 .253-.031 1.058-.46 1.058s-.46-.805-.46-1.058m2.438 1.589v-1.31l.144.007c.598 0 .992-.34.992-.935 0-1.024-.971-.939-1.11-.939h-.672v3.177h.646zm0-2.659h.121c.278 0 .369.186.369.412 0 .325-.178.44-.49.426v-.838z" fill="#231F20"/><path fill="#231F20" d="M11.809 12.572v.59h-.512v2.587h-.646V13.16h-.508v-.59m1.853 3.178h.646v-3.177h-.646m2.012-.05c-.576 0-1.15.446-1.15 1.638s.574 1.64 1.15 1.64c.577 0 1.15-.447 1.15-1.64s-.573-1.639-1.15-1.639m-.46 1.64c0-.282.031-1.059.46-1.059.43 0 .46.777.46 1.058 0 .253-.03 1.058-.46 1.058-.429 0-.46-.805-.46-1.058m2.422-1.588l.808 1.916.008-.007a1.99 1.99 0 0 1-.053-.481v-1.428h.646v3.177h-.61l-.8-1.917-.008.008.03.32.004.13v1.459h-.645v-3.177h.62zm3.015.716c-.13-.11-.29-.202-.468-.202-.2 0-.325.118-.325.312 0 .522.984.551.984 1.411 0 .564-.334.99-.941.99-.183 0-.408-.054-.555-.16v-.598a.846.846 0 0 0 .49.168c.207 0 .373-.134.373-.345 0-.245-.2-.337-.382-.464-.373-.245-.603-.48-.603-.944 0-.5.3-.935.855-.935.209 0 .394.055.572.157v.61z"/><path d="M7.392 9.015a5.276 5.276 0 0 1 5.143-6.423 5.276 5.276 0 0 1 5.143 6.423h.98a6.238 6.238 0 0 0-6.124-7.384 6.238 6.238 0 0 0-6.123 7.384h.98z" fill="#F58220" fill-rule="nonzero"/><path d="M11.603 10.58V7.445l1.666-1.2c.05-.182.077-.374.077-.57 0-1.213-1-2.196-2.233-2.196S8.88 4.462 8.88 5.674c0 1.017.705 1.87 1.66 2.12v2.786h1.063z" fill="#009A66"/><path fill="#009A66" d="M16.268 10.58V7.696L14.19 6.2l-2.075 1.496v2.884m-6.091 1.235h12.971v-.754H6.024"/></g></symbol><symbol viewBox="0 0 24 24" id="badge-ES" xmlns="http://www.w3.org/2000/svg"><defs><path id="ba" d="M0 .069h23.424v8.173H0z"/><path id="bc" d="M23.424.155v15.44H0V.154z"/><path id="be" d="M23.424.076v6.85H0V.076h23.423z"/></defs><g fill="none" fill-rule="evenodd"><path fill="#0093DD" d="M.252 24.007h23.424v-5.235H.252"/><g transform="translate(.252 -.055)"><mask id="bb" fill="#fff"><use xlink:href="#ba"/></mask><path d="M11.71 2.233c4.817 0 9.088 2.372 11.714 6.009V.069H0v8.17c2.623-3.635 6.894-6.006 11.71-6.006" fill="#0093DD" mask="url(#bb)"/></g><g transform="translate(.252 2.6)"><mask id="bd" fill="#fff"><use xlink:href="#bc"/></mask><path d="M11.71.155C6.835.155 2.53 2.648 0 6.425v9.17h23.424V6.427C20.895 2.649 16.589.155 11.71.155" fill="#0093DD" mask="url(#bd)"/></g><g transform="translate(.252 2.102)"><mask id="bf" fill="#fff"><use xlink:href="#be"/></mask><path d="M11.71.653c4.879 0 9.186 2.494 11.714 6.273v-.841C20.798 2.448 16.527.076 11.71.076 6.895.076 2.624 2.447 0 6.081v.842C2.529 3.145 6.834.653 11.71.653" fill="#FFF" mask="url(#bf)"/></g><path d="M13.266 14.88c0-.084.02-.22.089-.416.169-.484.593-1.172 1.346-1.877-.566 1.357-1.096 2.16-1.29 2.31a.461.461 0 0 1-.132.077.245.245 0 0 1-.013-.094m-1.218-2.29c-.251.647-.607 1.371-1.036 1.711-.02.017-.039.03-.054.041.02-.267.346-.984 1.09-1.751m.143-1.022c-.357.316-.682.462-.798.462a.758.758 0 0 1 .089-.264c.21.007.447-.057.71-.198m.556-.987a.409.409 0 0 1 .144-.013c-.01.013-.02.027-.04.045-.425.393-.798.644-1.094.741.463-.6.864-.743.99-.773m-4.097.635a.278.278 0 0 1 .129-.04c-.01.044-.057.151-.237.309-.135.116-.259.22-.372.313.188-.395.401-.541.48-.582m-3.64-.97c.068.004.079.031.085.044.005.017.01.039.01.064 0 .16-.141.493-.57.932-.576.59-1.12.956-1.606 1.178.853-1.643 1.726-2.234 2.08-2.217m-2.45 2.129c-.05.096-.086.186-.116.273-.941.282-1.568.032-1.61.014a.185.185 0 0 0-.145.339c.045.02.697.287 1.671.052l-.002.038c0 .274.115.46.266.558.423.276 1.354.041 2.705-1.338-.087.249-.165.522-.216.804a.227.227 0 0 0-.002.036c0 .078.045.148.118.177.146.06.23-.062.303-.168l.188-.28c.162-.243.527-.793.774-1.08-.03.158-.06.336-.06.505 0 .228.055.437.24.545.154.09.402.121.939-.199a.364.364 0 0 0 .188.208c.343.16.99-.185 1.664-.83-.091.204-.16.374-.179.445a.262.262 0 0 0-.006.056.19.19 0 0 0 .112.175c.148.065.242-.065.317-.171l.203-.294c.169-.249.565-.832.797-1.075.069.168.191.38.411.503a.957.957 0 0 0-.096.375.33.33 0 0 0 .145.292c.173.118.437.053.711-.097-.876.87-1.279 1.736-1.292 2.12v.023c0 .214.105.3.17.332.133.067.296.025.484-.124.66-.524 1.14-1.768 1.386-2.53.33-.267.715-.529 1.157-.767-.143.252-.225.49-.225.683 0 .07.01.134.03.19a.35.35 0 0 0 .3.236c.304.033.725-.286 1.222-.899l-.127.356c-1.379 1.087-1.999 2.249-2.078 2.879-.007.051-.01.098-.01.142 0 .251.1.368.194.42.104.06.283.089.545-.112.292-.222.987-1.313 1.661-3.109.895-.687 2.12-1.345 3.752-1.795a.187.187 0 0 0 .129-.228.186.186 0 0 0-.229-.129c-1.424.395-2.552.947-3.434 1.544.106-.311.21-.64.311-.988a.184.184 0 0 0-.333-.15c-.919 1.443-1.44 1.705-1.554 1.702a.122.122 0 0 1-.011-.056c0-.165.14-.576.596-1.058a.189.189 0 0 0 .05-.126.186.186 0 0 0-.258-.17c-.58.245-1.08.536-1.514.844l.009-.037c.003-.016.007-.03.007-.045a.186.186 0 0 0-.1-.163l-.01-.003c.127-.1.258-.21.395-.337.145-.135.182-.257.182-.348a.322.322 0 0 0-.015-.099c-.043-.13-.164-.216-.33-.236-.408-.048-1.054.298-1.633 1.15-.198-.106-.275-.364-.31-.481l-.015-.048a.179.179 0 0 0-.176-.125c-.125.002-.26.088-.47.335l.01-.017a.191.191 0 0 0 .016-.08.185.185 0 0 0-.332-.11c-1.03 1.385-1.93 1.77-2.072 1.7 0-.004-.004-.014-.004-.037 0-.016.003-.039.008-.066.23-.164.501-.38.823-.659.298-.259.367-.468.367-.607a.373.373 0 0 0-.027-.141c-.062-.143-.209-.222-.387-.207-.381.033-.859.48-1.1 1.39-.596.408-.757.346-.779.333-.08-.047-.074-.302.018-.759.04-.203.06-.295.014-.38a.25.25 0 0 0-.213-.136c-.193-.009-.413.194-.87.84a6.16 6.16 0 0 1 .361-.73.185.185 0 0 0-.3-.213c-1.624 1.982-2.728 2.394-3.043 2.189-.067-.044-.1-.13-.1-.245a.85.85 0 0 1 .019-.158c.608-.217 1.31-.632 2.054-1.395.44-.449.675-.87.675-1.19a.537.537 0 0 0-.035-.2c-.066-.165-.216-.266-.41-.276-.584-.027-1.573.734-2.47 2.498" fill="#FFF"/><path d="M18.554 6.129a.277.277 0 0 0-.259.176s-1.013 2.6-1.13 2.897c-.318.018-3.09.164-3.09.164a.277.277 0 0 0-.263.276v.015a.278.278 0 0 0 .292.261l3.269-.173a.278.278 0 0 0 .243-.176l.937-2.403.933 2.394c.039.1.134.169.24.176l2.551.146-1.97 1.638a.273.273 0 0 0-.092.28l.635 2.477-2.143-1.382a.277.277 0 0 0-.298-.001l-2.173 1.383.633-2.284a.277.277 0 0 0-.535-.147l-.822 2.977a.276.276 0 0 0 .415.306l2.629-1.674c.266.173 2.587 1.67 2.587 1.67a.277.277 0 0 0 .427-.232.274.274 0 0 0-.01-.069l-.766-2.991 2.376-1.974a.278.278 0 0 0 .086-.3.275.275 0 0 0-.246-.189l-3.074-.176-1.125-2.89a.276.276 0 0 0-.257-.175M1.262 22.855v-2.93h1.51v.325H1.635v.941H2.69v.325H1.635v1.014h1.16v.325m2.477-2.93v2.93H4.76l-1.156-2.54h-.008v2.54h-.333v-2.93h.528l1.14 2.508h.008v-2.508m.85 2.93v-2.93H7.3v.325H6.163v.941h1.055v.325H6.163v1.014h1.16v.325m1.261-1.347c.126 0 .414.016.442.373.033.39.009.771.114.974h.39c-.057-.182-.098-.642-.102-.767-.02-.589-.141-.702-.478-.755v-.008c.344-.06.535-.324.535-.67 0-.364-.182-.73-.702-.73h-1.01v2.93h.373v-1.347h.438zm-.438-1.258h.564c.288 0 .394.235.394.446 0 .256-.13.487-.398.487h-.56v-.933zm3.147.458c0-.345-.142-.531-.52-.531-.118 0-.54.02-.54.633v.99c0 .641.187.803.54.803.268 0 .446-.073.524-.13v-.876h-.54v-.325h.913v1.425c-.24.13-.52.219-.897.219-.62 0-.921-.321-.921-1.132v-.962c0-.584.3-.958.92-.958.634 0 .935.232.91.844h-.39zm2.165-.783h.377l-.798 1.813v1.116h-.373v-1.116l-.788-1.813h.418l.572 1.416m2.23.641v.085c0 .398.253.524.492.524.296 0 .523-.126.523-.475 0-.649-1.315-.575-1.315-1.457 0-.519.37-.795.861-.795.535 0 .836.26.811.857h-.39c.004-.321-.097-.532-.45-.532-.223 0-.45.113-.45.43 0 .645 1.315.552 1.315 1.481 0 .617-.427.816-.91.816-.864.007-.864-.654-.856-.934h.37zm3.48-2.057v.325h-.77v2.604h-.374V20.25h-.771v-.325m1.606 2.93h.376l.22-.699h1.132l.21.698h.418l-.953-2.929h-.475l-.928 2.93zm1.626-1.023h-.937l.458-1.562h.008l.471 1.562zm1.83-.324c.126 0 .414.016.442.373.032.39.008.771.114.974h.389c-.057-.182-.097-.642-.101-.767-.02-.589-.142-.702-.48-.755v-.008c.345-.06.536-.324.536-.67 0-.364-.182-.73-.702-.73h-1.01v2.93h.374v-1.347h.438zm-.438-1.258h.564c.288 0 .393.235.393.446 0 .256-.13.487-.398.487h-.56v-.933z" fill="#FFF"/></g></symbol><symbol viewBox="0 0 24 24" id="badge-HDA" xmlns="http://www.w3.org/2000/svg"><g fill="none"><path fill="#0A0203" d="M.001 5.945h24.002v17.197H.001z"/><path fill="#FFF" d="M3.631 19.462h16.984v1.259H3.631zm0-11.083h16.984v1.259H3.631z"/><path d="M3.653 10.399H6.25c1.368 0 1.848.99 1.848 1.732 0 1.22-.819 1.791-1.98 1.791H5.2v1.524H3.648l.005-5.047zm1.552 2.313h.598c.404 0 .824-.027.824-.537 0-.458-.353-.495-.742-.495h-.69l.01 1.032zm3.132-2.313h2.955c.88 0 1.643.494 1.643 1.44 0 .522-.248 1.071-.755 1.262.423.163.685.628.742 1.254.02.248.027.846.168 1.079h-1.55a3.645 3.645 0 0 1-.126-.777c-.042-.48-.084-.99-.698-.99h-.824v1.757H8.337v-5.025zm1.552 2.2h.799c.29 0 .685-.05.685-.496 0-.316-.175-.494-.77-.494h-.727l.013.99zm3.461-2.2h1.544v5.035h-1.551zm3.539 2.358L15.23 10.4h1.818l.763 1.368.742-1.368h1.732l-1.616 2.37 1.8 2.665h-1.864l-.861-1.502-.889 1.502H15.08z" fill="#FFC430"/><path d="M3.65 16.142h1.295c.853 0 1.155.63 1.155 1.276 0 .785-.415 1.285-1.309 1.285h-1.14v-2.561zm.79 1.905h.31c.494 0 .563-.399.563-.639a.567.567 0 0 0-.62-.608h-.248l-.005 1.247zm2.002-1.905h2.12v.645H7.224v.32H8.43v.608H7.224v.32h1.37v.655h-2.16zm5.562 2.298a.896.896 0 0 1-.727.322c-.757 0-1.223-.589-1.223-1.316 0-.975.686-1.366 1.262-1.366a1.106 1.106 0 0 1 1.18.957h-.757a.374.374 0 0 0-.373-.319c-.542 0-.525.57-.525.742a.586.586 0 0 0 .59.664.391.391 0 0 0 .407-.283h-.348v-.559h1.046v1.41h-.495l-.037-.252zm.911-2.298h1.502c.448 0 .836.247.836.742a.656.656 0 0 1-.383.64.698.698 0 0 1 .376.64c-.002.186.027.371.086.548h-.79a1.831 1.831 0 0 1-.063-.393c-.023-.247-.042-.495-.357-.495h-.42v.893h-.787v-2.575zm.79 1.118h.412c.146 0 .35-.025.35-.247 0-.161-.09-.248-.392-.248h-.368l-.003.495zm3.062-1.18a1.341 1.341 0 1 1-1.299 1.34 1.26 1.26 0 0 1 1.3-1.34zm0 2.044c.2 0 .51-.134.51-.703 0-.57-.31-.703-.51-.703s-.51.134-.51.703.31.703.51.703zm2.26-.283c0 .058.01.115.03.169a.36.36 0 0 0 .375.185c.129 0 .327-.042.327-.232 0-.134-.111-.169-.552-.295-.44-.126-.868-.225-.868-.742 0-.591.495-.846 1.031-.846.537 0 1.047.213 1.07.836h-.743a.195.195 0 0 0-.094-.205.408.408 0 0 0-.233-.065c-.108 0-.284.03-.284.174.015.183.381.222.742.321.361.1.72.27.72.743 0 .668-.613.883-1.182.883-.29 0-1.119-.104-1.126-.92l.787-.006z" fill="#FFF"/><path fill="#FFC430" d="M.001.006h24.002v5.939H.001z"/><path d="M1.622 1.605h2.385v.626h-1.61v.527h1.471v.606H2.396v.571H4.05v.673H1.614l.008-3.003zM3.527.793l-.66.626H2.37l.41-.626h.747zm1.188.812h.777v2.33h1.4v.673H4.71zm2.781 0h.782v3.003h-.782zm4.264 3.003h-.496l-.047-.329c-.2.256-.51.402-.836.391a1.566 1.566 0 0 1 0-3.13c.624 0 1.287.332 1.358 1.087h-.781c-.025-.248-.278-.414-.594-.414-.495 0-.698.446-.698.891s.193.89.698.89c.386 0 .648-.18.69-.454h-.547v-.582h1.262l-.01 1.65zm.754-3.003h.782v3.003h-.782zm1.534 0h1.406c.517 0 1.086.126 1.086.742a.676.676 0 0 1-.396.606c.315.09.528.383.517.71 0 .715-.525.933-1.17.933h-1.443V1.605zm.782 1.182h.606a.292.292 0 0 0 .32-.287c0-.217-.157-.29-.32-.29h-.606v.577zm0 1.195h.626c.247 0 .42-.089.42-.336 0-.247-.185-.354-.42-.354h-.626v.69zm2.464-2.377h.782v2.33h1.4v.673h-2.182zm2.698 0h2.392v.626h-1.61v.527h1.472v.606h-1.473v.571h1.653v.673h-2.434z" fill="#231F20"/></g></symbol><symbol viewBox="0 0 24 24" id="badge-NLP" xmlns="http://www.w3.org/2000/svg"><defs><path id="da" d="M0 24.79h25.931V.097H0z"/></defs><g fill="none" fill-rule="evenodd"><path fill="#231F20" d="M23.885-.11H.045L2.48 17.019H.045l11.92 6.952 11.92-6.952h-2.44"/><path fill="#FEC10E" d="M1.319 6.53L.422.216h23.086l-.9 6.312"/><path fill="#231F20" d="M1.822 1.74h1.126l.65 2.384h.011V1.74h.943v3.867H3.447l-.672-2.389h-.01v2.389h-.943"/><g transform="translate(-1 -.487)"><path d="M7.295 5.488c.309 0 .342-.282.342-1.327s-.033-1.327-.342-1.327-.34.282-.34 1.327.032 1.327.34 1.327zm0-3.336c1.03 0 1.381.563 1.381 2.01 0 1.445-.352 2.008-1.38 2.008-1.03 0-1.382-.563-1.382-2.009s.352-2.01 1.381-2.01zm2.708.076v2.789c0 .373.114.471.304.471s.303-.098.303-.471v-2.79h1.007v2.535c0 1.083-.466 1.408-1.31 1.408-.845 0-1.311-.325-1.311-1.408V2.228h1.007zm1.733 0h1.073l.406 2.913h.01l.407-2.913h1.072l-.834 3.867h-1.3m2.297-3.867h2.29v.823h-1.283v.66h1.202v.791h-1.202v.77h1.332v.823h-2.34m3.981-3.077h-.01L18.56 4.66h.563l-.276-1.64zm-.639-.79h1.268l.942 3.867h-1.073l-.102-.677h-.802l-.103.677h-1.072l.942-3.867zm3.288 0v2.789c0 .373.113.471.303.471s.303-.098.303-.471v-2.79h1.008v2.535c0 1.083-.466 1.408-1.311 1.408s-1.31-.325-1.31-1.408V2.228h1.007z" fill="#231F20"/><path d="M9.058 9.738h.331c.295 0 .497-.176.497-.554 0-.362-.145-.57-.517-.57h-.31v1.124zm-.745-1.672h1.304c.756 0 1.014.554 1.014 1.107 0 .766-.47 1.113-1.174 1.113h-.399v1.475h-.745V8.066zm3.431 1.615h.31c.358 0 .56-.156.56-.554 0-.342-.181-.513-.518-.513h-.352v1.067zM11 8.066h1.377c.61 0 .983.32.983.952 0 .492-.197.823-.616.911v.01c.507.068.585.347.595 1.129.006.388.026.59.166.662v.031h-.807c-.073-.103-.088-.243-.093-.388l-.021-.71c-.01-.289-.14-.465-.44-.465h-.399v1.563H11V8.066z" fill="#FEFEFE"/><mask id="db" fill="#fff"><use xlink:href="#da"/></mask><path fill="#FEFEFE" mask="url(#db)" d="M13.913 11.761h.745V8.066h-.745m1.144 0h.823l.476 1.196.47-1.196h.813l-.859 1.827.921 1.868h-.838l-.533-1.252-.528 1.252h-.818l.922-1.868M6.75 15.219h.31c.357 0 .56-.155.56-.553 0-.342-.182-.513-.518-.513H6.75v1.066zm-.745-1.614h1.376c.61 0 .983.32.983.952 0 .492-.196.823-.616.91v.011c.508.067.585.347.596 1.128.005.388.026.59.165.663v.03h-.807c-.072-.103-.088-.243-.093-.387l-.02-.71c-.011-.29-.14-.465-.44-.465h-.4V17.3h-.744v-3.695zm3.87-.963h.715l-.507.745h-.487l.28-.745zm1.072.963v.61h-1.32v.87h1.242v.61H9.628v.994H11v.61H8.883v-3.694h2.065zm1.206 3.146h.331c.518 0 .621-.326.621-1.33 0-.838-.067-1.268-.636-1.268h-.316v2.598zm-.745-3.146h1.221c1.035 0 1.222.709 1.222 1.795 0 1.31-.28 1.9-1.268 1.9h-1.175v-3.695zm3.633 0v2.577c0 .367.088.641.435.641.346 0 .434-.274.434-.641v-2.577h.746v2.577c0 .942-.575 1.19-1.18 1.19-.606 0-1.18-.202-1.18-1.19v-2.577h.745zm2.122 3.695h.745v-3.695h-.745m3.462 0v.61h-.807V17.3h-.745v-3.085h-.807v-.61"/></g></g></symbol><symbol viewBox="0 0 24 21" id="badge-SB" xmlns="http://www.w3.org/2000/svg"><g fill="none" fill-rule="evenodd"><path fill="#FEC10E" d="M1.161 10.297h20.2V0H1.16"/><path fill="#FEFEFE" d="M.6 9.927l1.105 10.548L23.9 18.519 22.792 7.973"/><path d="M.557 9.892l1.114 10.625 22.27-1.963-1.115-10.623L.557 9.892zm.085.07l22.115-1.947 1.099 10.469L1.74 20.433.642 9.963z" fill="#231F20"/><path fill="#231F20" d="M.557 9.892l1.114 10.625 22.27-1.963-1.115-10.623"/><path fill="#EC1D24" d="M0 9.387l1.114 10.625 22.27-1.964-1.116-10.623"/><path d="M1.503 15.713l1.306-.136.09.874c.019.175.075.346.273.325.25-.026.229-.308.207-.52l-.024-.228c-.103-.995-1.897-.68-2.058-2.23l-.031-.303c-.102-.987.46-1.407 1.388-1.503 1.306-.135 1.605.449 1.665 1.034l.053.509-1.254.13-.046-.449c-.035-.342-.192-.371-.313-.359-.137.014-.227.108-.2.381l.025.236c.082.79 1.935.59 2.1 2.186l.044.426c.114 1.101-.517 1.458-1.49 1.559-1.33.137-1.585-.482-1.665-1.256l-.07-.676zm4.659-1.642l.243-.025c.243-.025.323-.149.3-.361l-.076-.737c-.022-.213-.125-.317-.368-.292l-.243.025.144 1.39zm-1.59-2.162l1.83-.19c.806-.082 1.325.263 1.413 1.107l.069.668c.08.782-.154 1.336-1.02 1.426l-.608.063.229 2.21-1.352.14-.561-5.424zm4.46-1.636l1.307-.135-1.329.967-.546.056.568-.888zM7.944 11.56l2.363-.244.113 1.094-.965.1.103.995.904-.093.109 1.048-.905.093.124 1.193 1.04-.108.114 1.094-2.439.253-.56-5.425zm2.836 1.289c-.09-.859.168-1.714 1.52-1.854 1.026-.106 1.624.407 1.723 1.365l.08.767-1.399.145-.104-1.01c-.019-.183-.039-.373-.29-.347-.159.016-.195.19-.175.379l.322 3.115c.02.19.09.351.25.335.25-.026.23-.231.205-.466l-.114-1.102 1.398-.145.093.897c.1.957-.44 1.619-1.435 1.722-1.405.145-1.748-.648-1.837-1.507l-.237-2.294zm3.332-1.927l1.398-.144.56 5.424-1.397.145m3.334-2.28L17.5 11.54l-.015.001.036 2.576.486-.05zm-1.632-3.378l2.013-.209 1.306 5.347-1.397.145-.168-.95-.509.053.03.964-1.397.144.122-5.494zm2.963-.307l1.398-.145.452 4.376.927-.096.108 1.049-2.324.24" fill="#FEFEFE"/><path d="M5.146 4.92h.681l-.333-2.11H5.48l-.334 2.11zm-.272 1.826h-.818l.907-4.918H6.01l.906 4.918H6.1l-.15-1.09h-.926l-.15 1.09zM8.769 3.47v-.381c0-.416-.19-.593-.408-.593-.341 0-.45.177-.45.545v2.492c0 .368.109.545.45.545.306 0 .408-.177.408-.497v-.592h.845v.565c0 .695-.409 1.26-1.253 1.26-.886 0-1.295-.565-1.295-1.26V3.02c0-.694.41-1.26 1.295-1.26.844 0 1.253.613 1.253 1.349v.36h-.845zm1.192 3.276V1.828h.845v2.003h.898V1.828h.845v4.918h-.845v-2.18h-.898v2.18m3.152-1.825h.681l-.334-2.112h-.013l-.334 2.112zm-.273 1.825h-.817l.906-4.918h1.05l.905 4.918h-.817l-.15-1.09h-.926l-.15 1.09zm2.603-4.182h-.817v-.736h2.48v.736h-.818v4.182h-.845" fill="#231F20"/></g></symbol></svg>