<svg xmlns="http://www.w3.org/2000/svg" xmlns:xlink="http://www.w3.org/1999/xlink"><symbol viewBox="0 0 24 24" id="badge-ECO" xmlns="http://www.w3.org/2000/svg"><g fill="none" fill-rule="evenodd"><path d="M19.763 23.726H3.81V2.5C5.104 2.27 7.527.46 11.746.46c4.218 0 6.89 1.839 8.017 2.038v21.227z" fill="#FFFBC8"/><path d="M4.117 23.417h15.338V2.741c-.312-.091-.69-.251-1.142-.443C16.877 1.69 14.706.77 11.746.77c-2.897 0-4.967.888-6.338 1.476-.506.217-.926.397-1.29.498v20.673zm15.955.618H3.5V2.24l.255-.045c.351-.062.819-.263 1.41-.517C6.582 1.071 8.722.152 11.745.152c3.087 0 5.327.95 6.809 1.578.546.231.978.414 1.263.465l.255.045v21.795z" fill="#93CCB6"/><path fill="#231F20" d="M6.487 14.454v.882H8.08v1.167H6.487v.913H8.17v1.167H5.072v-5.296h3.1v1.167m4.414.635c-.335-.389-.736-.58-1.226-.58-.85 0-1.464.612-1.464 1.462 0 .817.622 1.42 1.464 1.42.466 0 .858-.174 1.226-.555v1.627c-.662.215-.883.262-1.25.262-1.644 0-2.92-1.206-2.92-2.762 0-1.548 1.284-2.787 2.887-2.787.425 0 .768.072 1.283.27v1.643zm3.18-1.96c-1.725 0-3.016 1.214-3.016 2.818 0 1.611 1.291 2.826 3.017 2.826 1.725 0 3.017-1.215 3.017-2.826 0-1.612-1.292-2.819-3.017-2.819m0 1.334c.85 0 1.537.667 1.537 1.485 0 .825-.687 1.492-1.537 1.492-.85 0-1.537-.667-1.537-1.492 0-.818.686-1.485 1.537-1.485"/><path d="M6.479 9.418a5.427 5.427 0 0 1 5.29-6.606 5.427 5.427 0 0 1 5.289 6.606h1.009a6.416 6.416 0 0 0-6.298-7.594A6.416 6.416 0 0 0 5.47 9.418H6.48z" fill="#F58220"/><path d="M10.824 11.051V7.82l1.718-1.238c.051-.187.08-.384.08-.588 0-1.25-1.032-2.263-2.303-2.263-1.272 0-2.303 1.013-2.303 2.263 0 1.049.727 1.928 1.712 2.185v2.873h1.096z" fill="#009A66"/><path fill="#009A66" d="M15.634 11.051V8.077l-2.141-1.542-2.141 1.542v2.974M5.07 12.325h13.375v-.777H5.07"/><path d="M6.114 19.2c-.595 0-1.185.46-1.185 1.69 0 1.229.59 1.69 1.185 1.69.595 0 1.186-.461 1.186-1.69 0-1.23-.59-1.69-1.186-1.69m-.474 1.69c0-.292.031-1.091.474-1.091.443 0 .475.8.475 1.09 0 .26-.032 1.09-.475 1.09-.443 0-.474-.83-.474-1.09m2.515 1.638v-1.35l.147.008c.618 0 1.025-.352 1.025-.965 0-1.055-1.003-.968-1.146-.968h-.693v3.275h.667zm0-2.741h.125c.286 0 .38.191.38.426 0 .334-.183.451-.505.438v-.864z" fill="#231F20"/><path fill="#231F20" d="M11.036 19.252v.608h-.528v2.667H9.84V19.86h-.523v-.608m1.91 3.275h.667v-3.275h-.667m2.076-.053c-.595 0-1.185.46-1.185 1.69s.59 1.69 1.185 1.69c.595 0 1.186-.46 1.186-1.69s-.59-1.69-1.186-1.69m-.474 1.69c0-.29.031-1.09.474-1.09.443 0 .474.8.474 1.09 0 .26-.031 1.09-.474 1.09-.443 0-.474-.83-.474-1.09m2.497-1.637l.832 1.976.009-.008a2.004 2.004 0 0 1-.054-.496v-1.472h.667v3.275h-.631l-.823-1.977-.01.01.032.33.004.134v1.503h-.666v-3.275h.64zm3.11.738c-.135-.113-.3-.208-.484-.208-.206 0-.336.121-.336.321 0 .539 1.016.57 1.016 1.455 0 .582-.345 1.021-.971 1.021-.188 0-.42-.056-.573-.165v-.617c.157.105.309.174.506.174.215 0 .385-.139.385-.356 0-.252-.206-.348-.394-.478-.385-.252-.622-.495-.622-.973 0-.517.309-.965.881-.965.215 0 .408.057.591.161v.63z"/></g></symbol><symbol viewBox="0 0 24 24" id="badge-ES" xmlns="http://www.w3.org/2000/svg"><defs><path id="ba" d="M0 .069h23.424v8.173H0z"/><path id="bc" d="M23.424.155v15.44H0V.154z"/><path id="be" d="M23.424.076v6.85H0V.076h23.423z"/></defs><g fill="none" fill-rule="evenodd"><path fill="#0093DD" d="M.252 24.007h23.424v-5.235H.252"/><g transform="translate(.252 -.055)"><mask id="bb" fill="#fff"><use xlink:href="#ba"/></mask><path d="M11.71 2.233c4.817 0 9.088 2.372 11.714 6.009V.069H0v8.17c2.623-3.635 6.894-6.006 11.71-6.006" fill="#0093DD" mask="url(#bb)"/></g><g transform="translate(.252 2.6)"><mask id="bd" fill="#fff"><use xlink:href="#bc"/></mask><path d="M11.71.155C6.835.155 2.53 2.648 0 6.425v9.17h23.424V6.427C20.895 2.649 16.589.155 11.71.155" fill="#0093DD" mask="url(#bd)"/></g><g transform="translate(.252 2.102)"><mask id="bf" fill="#fff"><use xlink:href="#be"/></mask><path d="M11.71.653c4.879 0 9.186 2.494 11.714 6.273v-.841C20.798 2.448 16.527.076 11.71.076 6.895.076 2.624 2.447 0 6.081v.842C2.529 3.145 6.834.653 11.71.653" fill="#FFF" mask="url(#bf)"/></g><path d="M13.266 14.88c0-.084.02-.22.089-.416.169-.484.593-1.172 1.346-1.877-.566 1.357-1.096 2.16-1.29 2.31a.461.461 0 0 1-.132.077.245.245 0 0 1-.013-.094m-1.218-2.29c-.251.647-.607 1.371-1.036 1.711-.02.017-.039.03-.054.041.02-.267.346-.984 1.09-1.751m.143-1.022c-.357.316-.682.462-.798.462a.758.758 0 0 1 .089-.264c.21.007.447-.057.71-.198m.556-.987a.409.409 0 0 1 .144-.013c-.01.013-.02.027-.04.045-.425.393-.798.644-1.094.741.463-.6.864-.743.99-.773m-4.097.635a.278.278 0 0 1 .129-.04c-.01.044-.057.151-.237.309-.135.116-.259.22-.372.313.188-.395.401-.541.48-.582m-3.64-.97c.068.004.079.031.085.044.005.017.01.039.01.064 0 .16-.141.493-.57.932-.576.59-1.12.956-1.606 1.178.853-1.643 1.726-2.234 2.08-2.217m-2.45 2.129c-.05.096-.086.186-.116.273-.941.282-1.568.032-1.61.014a.185.185 0 0 0-.145.339c.045.02.697.287 1.671.052l-.002.038c0 .274.115.46.266.558.423.276 1.354.041 2.705-1.338-.087.249-.165.522-.216.804a.227.227 0 0 0-.002.036c0 .078.045.148.118.177.146.06.23-.062.303-.168l.188-.28c.162-.243.527-.793.774-1.08-.03.158-.06.336-.06.505 0 .228.055.437.24.545.154.09.402.121.939-.199a.364.364 0 0 0 .188.208c.343.16.99-.185 1.664-.83-.091.204-.16.374-.179.445a.262.262 0 0 0-.006.056.19.19 0 0 0 .112.175c.148.065.242-.065.317-.171l.203-.294c.169-.249.565-.832.797-1.075.069.168.191.38.411.503a.957.957 0 0 0-.096.375.33.33 0 0 0 .145.292c.173.118.437.053.711-.097-.876.87-1.279 1.736-1.292 2.12v.023c0 .214.105.3.17.332.133.067.296.025.484-.124.66-.524 1.14-1.768 1.386-2.53.33-.267.715-.529 1.157-.767-.143.252-.225.49-.225.683 0 .07.01.134.03.19a.35.35 0 0 0 .3.236c.304.033.725-.286 1.222-.899l-.127.356c-1.379 1.087-1.999 2.249-2.078 2.879-.007.051-.01.098-.01.142 0 .251.1.368.194.42.104.06.283.089.545-.112.292-.222.987-1.313 1.661-3.109.895-.687 2.12-1.345 3.752-1.795a.187.187 0 0 0 .129-.228.186.186 0 0 0-.229-.129c-1.424.395-2.552.947-3.434 1.544.106-.311.21-.64.311-.988a.184.184 0 0 0-.333-.15c-.919 1.443-1.44 1.705-1.554 1.702a.122.122 0 0 1-.011-.056c0-.165.14-.576.596-1.058a.189.189 0 0 0 .05-.126.186.186 0 0 0-.258-.17c-.58.245-1.08.536-1.514.844l.009-.037c.003-.016.007-.03.007-.045a.186.186 0 0 0-.1-.163l-.01-.003c.127-.1.258-.21.395-.337.145-.135.182-.257.182-.348a.322.322 0 0 0-.015-.099c-.043-.13-.164-.216-.33-.236-.408-.048-1.054.298-1.633 1.15-.198-.106-.275-.364-.31-.481l-.015-.048a.179.179 0 0 0-.176-.125c-.125.002-.26.088-.47.335l.01-.017a.191.191 0 0 0 .016-.08.185.185 0 0 0-.332-.11c-1.03 1.385-1.93 1.77-2.072 1.7 0-.004-.004-.014-.004-.037 0-.016.003-.039.008-.066.23-.164.501-.38.823-.659.298-.259.367-.468.367-.607a.373.373 0 0 0-.027-.141c-.062-.143-.209-.222-.387-.207-.381.033-.859.48-1.1 1.39-.596.408-.757.346-.779.333-.08-.047-.074-.302.018-.759.04-.203.06-.295.014-.38a.25.25 0 0 0-.213-.136c-.193-.009-.413.194-.87.84a6.16 6.16 0 0 1 .361-.73.185.185 0 0 0-.3-.213c-1.624 1.982-2.728 2.394-3.043 2.189-.067-.044-.1-.13-.1-.245a.85.85 0 0 1 .019-.158c.608-.217 1.31-.632 2.054-1.395.44-.449.675-.87.675-1.19a.537.537 0 0 0-.035-.2c-.066-.165-.216-.266-.41-.276-.584-.027-1.573.734-2.47 2.498" fill="#FFF"/><path d="M18.554 6.129a.277.277 0 0 0-.259.176s-1.013 2.6-1.13 2.897c-.318.018-3.09.164-3.09.164a.277.277 0 0 0-.263.276v.015a.278.278 0 0 0 .292.261l3.269-.173a.278.278 0 0 0 .243-.176l.937-2.403.933 2.394c.039.1.134.169.24.176l2.551.146-1.97 1.638a.273.273 0 0 0-.092.28l.635 2.477-2.143-1.382a.277.277 0 0 0-.298-.001l-2.173 1.383.633-2.284a.277.277 0 0 0-.535-.147l-.822 2.977a.276.276 0 0 0 .415.306l2.629-1.674c.266.173 2.587 1.67 2.587 1.67a.277.277 0 0 0 .427-.232.274.274 0 0 0-.01-.069l-.766-2.991 2.376-1.974a.278.278 0 0 0 .086-.3.275.275 0 0 0-.246-.189l-3.074-.176-1.125-2.89a.276.276 0 0 0-.257-.175M1.262 22.855v-2.93h1.51v.325H1.635v.941H2.69v.325H1.635v1.014h1.16v.325m2.477-2.93v2.93H4.76l-1.156-2.54h-.008v2.54h-.333v-2.93h.528l1.14 2.508h.008v-2.508m.85 2.93v-2.93H7.3v.325H6.163v.941h1.055v.325H6.163v1.014h1.16v.325m1.261-1.347c.126 0 .414.016.442.373.033.39.009.771.114.974h.39c-.057-.182-.098-.642-.102-.767-.02-.589-.141-.702-.478-.755v-.008c.344-.06.535-.324.535-.67 0-.364-.182-.73-.702-.73h-1.01v2.93h.373v-1.347h.438zm-.438-1.258h.564c.288 0 .394.235.394.446 0 .256-.13.487-.398.487h-.56v-.933zm3.147.458c0-.345-.142-.531-.52-.531-.118 0-.54.02-.54.633v.99c0 .641.187.803.54.803.268 0 .446-.073.524-.13v-.876h-.54v-.325h.913v1.425c-.24.13-.52.219-.897.219-.62 0-.921-.321-.921-1.132v-.962c0-.584.3-.958.92-.958.634 0 .935.232.91.844h-.39zm2.165-.783h.377l-.798 1.813v1.116h-.373v-1.116l-.788-1.813h.418l.572 1.416m2.23.641v.085c0 .398.253.524.492.524.296 0 .523-.126.523-.475 0-.649-1.315-.575-1.315-1.457 0-.519.37-.795.861-.795.535 0 .836.26.811.857h-.39c.004-.321-.097-.532-.45-.532-.223 0-.45.113-.45.43 0 .645 1.315.552 1.315 1.481 0 .617-.427.816-.91.816-.864.007-.864-.654-.856-.934h.37zm3.48-2.057v.325h-.77v2.604h-.374V20.25h-.771v-.325m1.606 2.93h.376l.22-.699h1.132l.21.698h.418l-.953-2.929h-.475l-.928 2.93zm1.626-1.023h-.937l.458-1.562h.008l.471 1.562zm1.83-.324c.126 0 .414.016.442.373.032.39.008.771.114.974h.389c-.057-.182-.097-.642-.101-.767-.02-.589-.142-.702-.48-.755v-.008c.345-.06.536-.324.536-.67 0-.364-.182-.73-.702-.73h-1.01v2.93h.374v-1.347h.438zm-.438-1.258h.564c.288 0 .393.235.393.446 0 .256-.13.487-.398.487h-.56v-.933z" fill="#FFF"/></g></symbol><symbol viewBox="0 0 24 24" id="badge-HDA" xmlns="http://www.w3.org/2000/svg"><g fill="none"><path fill="#0A0203" d="M.011.016h24.001v17.196H.011z"/><path d="M4.784 7.479H5.6c.29 0 .545-.082.545-.43 0-.266-.159-.412-.495-.412h-.866v.842zm0-1.683h.742c.29 0 .475-.082.475-.374 0-.227-.19-.309-.475-.309h-.742v.683zM3.394 4.04h2.474c1.187 0 1.44.67 1.44 1.131a.93.93 0 0 1-.557.886 1.1 1.1 0 0 1 .784 1.126c0 .903-.784 1.37-1.58 1.37H3.392V4.04zm8.432 2.768c0 1.252-.676 1.85-2.054 1.85-1.378 0-2.061-.6-2.061-1.852V4.039h1.39V6.5c0 .462 0 1.037.676 1.037s.658-.575.658-1.037V4.04h1.39v2.77zm.287-2.768h1.39v3.357H15.5v1.155h-3.387zm3.644 0h1.391v1.553h.012L18.4 4.04h1.712l-1.635 1.765 1.902 2.748h-1.732l-1.113-1.756-.386.423v1.333h-1.39z" fill="#FFC430"/><path d="M4.66 11.084h.495c.33 0 .673-.023.673-.436 0-.373-.287-.396-.599-.396H4.66v.832zM3.393 9.206h2.108c1.119 0 1.51.814 1.51 1.398 0 .99-.668 1.455-1.613 1.455h-.743v1.237H3.388l.005-4.09zm5.036 1.786h.663c.247 0 .559-.04.559-.406 0-.247-.144-.405-.629-.405H8.43v.811zM7.162 9.206h2.412c.72 0 1.341.396 1.341 1.168A1.05 1.05 0 0 1 10.3 11.4c.347.132.56.51.606 1.02.018.2.023.688.139.876H9.777a2.97 2.97 0 0 1-.104-.631c-.035-.389-.07-.797-.569-.797h-.673v1.428H7.164l-.002-4.09zm4.075-.003h1.267v4.09h-1.267zm4.199 1.524a.658.658 0 0 0-.663-.6c-.594 0-.785.573-.785 1.122 0 .55.19 1.124.785 1.124.425 0 .593-.3.668-.683h1.237c0 .824-.673 1.702-1.878 1.702-1.331 0-2.086-.933-2.086-2.143 0-1.289.819-2.142 2.086-2.142 1.128 0 1.752.596 1.86 1.62h-1.224zm1.474-1.524h3.405v1.05h-2.138v.509h1.943v.972h-1.943v.51h2.202v1.05H16.91zM3.396 13.924H20.38v1.259H3.396zm0-11.782H20.38v1.259H3.396z" fill="#FFF"/><path fill="#FFC430" d="M.011 17.213h24.001v5.938H.011z"/><path fill="#0A0203" d="M1.543 18.737h2.412v.63H2.332v.53h1.484v.611H2.332v.577h1.665v.678H1.543zm3.12 0h.789v2.348h1.413v.678h-2.2zm2.803 0h.79v3.026h-.79zm4.34 3.026h-.51l-.047-.332a1.032 1.032 0 0 1-.843.394c-.916 0-1.51-.7-1.51-1.576 0-.876.594-1.577 1.51-1.577.628 0 1.296.334 1.368 1.094h-.79c-.024-.247-.28-.416-.596-.416-.51 0-.703.45-.703.899 0 .447.196.898.703.898.391 0 .653-.183.695-.458h-.551v-.584h1.271l.003 1.658zm.718-3.026h.789v3.026h-.79zm1.546 0h1.415c.522 0 1.094.126 1.094.76a.68.68 0 0 1-.398.61.72.72 0 0 1 .522.718c0 .72-.53.94-1.178.94H14.07v-3.028zm.79 1.19h.61a.294.294 0 0 0 .322-.287c0-.22-.156-.292-.322-.292h-.61v.579zm0 1.205h.63c.248 0 .423-.09.423-.34s-.185-.355-.423-.355h-.63v.695zm2.483-2.395h.777v2.348h1.41v.678h-2.199zm2.801 0h2.413v.63h-1.623v.53h1.484v.611h-1.484v.577h1.665v.678h-2.455z"/></g></symbol><symbol viewBox="0 0 24 24" id="badge-NLP" xmlns="http://www.w3.org/2000/svg"><g fill="none" fill-rule="evenodd"><path fill="#231F20" d="M23.627.09H.412l2.37 16.68H.412l11.607 6.77 11.608-6.77h-2.375"/><path fill="#FFC20E" d="M1.653 6.555L.779.408h22.48l-.875 6.147"/><path fill="#010101" d="M6.957 1.799h1.154l.665 2.44h.011v-2.44h.965v3.959H8.621l-.688-2.446h-.01v2.446h-.966m3.283-3.96h2.346v.843h-1.314v.677h1.23v.81h-1.23v.787h1.364v.843H10.24m4.22-3.96h.932l.405 2.74h.01l.278-2.74h.998l-.676 3.96h-1.132l-.343-2.662h-.011l-.344 2.662h-1.131l-.677-3.96h.998l.31 2.74h.012"/><path fill="#FFF" d="M4.919 12.842V9.146h.745v3.086h1.32v.61m1.512-.476c.44 0 .512-.378.512-1.372 0-.989-.073-1.372-.512-1.372s-.513.383-.513 1.372c0 .994.073 1.372.513 1.372zm0-3.292c1.118 0 1.258.797 1.258 1.92 0 1.124-.14 1.92-1.258 1.92-1.119 0-1.258-.796-1.258-1.92 0-1.123.14-1.92 1.258-1.92zm1.48.072h.714l.409 2.734h.01l.435-2.734h.714l.435 2.734h.01l.41-2.734h.714l-.673 3.696h-.833l-.415-2.681h-.01l-.414 2.681h-.833m5.543-3.696v.611h-1.32v.87h1.242v.61h-1.242v.995h1.372v.61h-2.117V9.146m3.235 1.615h.31c.357 0 .56-.155.56-.554 0-.341-.182-.512-.518-.512h-.352v1.066zm-.746-1.615h1.377c.61 0 .984.321.984.953 0 .492-.197.823-.616.91v.011c.507.068.585.347.595 1.129.005.388.026.59.166.662v.031h-.808c-.072-.103-.088-.243-.093-.388l-.02-.71c-.011-.289-.14-.465-.44-.465h-.4v1.563h-.745V9.146zm-9.748 6.478h.331c.295 0 .497-.176.497-.553 0-.363-.145-.57-.518-.57h-.31v1.123zm-.746-1.672h1.305c.756 0 1.014.554 1.014 1.108 0 .766-.47 1.113-1.175 1.113h-.398v1.476h-.746v-3.697zm3.432 1.616h.31c.358 0 .56-.156.56-.554 0-.342-.181-.513-.518-.513h-.352v1.067zm-.745-1.616h1.377c.61 0 .983.321.983.953 0 .492-.197.823-.616.911v.01c.507.068.585.347.595 1.129.006.388.026.59.166.662v.032h-.808c-.072-.104-.088-.244-.093-.389l-.02-.709c-.01-.29-.14-.466-.44-.466h-.399v1.564H8.81v-3.697zm2.913 3.697h.746v-3.697h-.746m2.879 1.248c0-.539-.11-.771-.446-.771-.377 0-.466.378-.466 1.423 0 1.118.156 1.32.477 1.32.269 0 .466-.14.466-.937h.745c0 .798-.197 1.486-1.175 1.486-1.118 0-1.258-.797-1.258-1.92 0-1.124.14-1.921 1.258-1.921 1.066 0 1.144.781 1.144 1.32h-.745zm3.265-1.248v.611h-1.32v.87h1.243v.61h-1.243v.995h1.372v.61h-2.117v-3.696"/><path fill="#231F20" d="M23.277.09H.062l2.37 16.68H.062l11.607 6.77 11.608-6.77h-2.375"/><path fill="#FFC20E" d="M1.303 6.555L.429.408h22.48l-.875 6.147"/><path fill="#010101" d="M6.607 1.799h1.154l.665 2.44h.011v-2.44h.965v3.959H8.271l-.688-2.446h-.01v2.446h-.966m3.283-3.96h2.346v.843h-1.314v.677h1.23v.81h-1.23v.787h1.364v.843H9.89m4.22-3.96h.932l.405 2.74h.01l.278-2.74h.998l-.676 3.96h-1.132l-.343-2.662h-.011l-.344 2.662h-1.131l-.677-3.96h.998l.31 2.74h.012"/><path fill="#FFF" d="M4.569 12.842V9.146h.745v3.086h1.32v.61m1.512-.476c.44 0 .512-.378.512-1.372 0-.989-.073-1.372-.512-1.372s-.513.383-.513 1.372c0 .994.073 1.372.513 1.372zm0-3.292c1.118 0 1.258.797 1.258 1.92 0 1.124-.14 1.92-1.258 1.92-1.119 0-1.258-.796-1.258-1.92 0-1.123.14-1.92 1.258-1.92zm1.48.072h.714l.409 2.734h.01l.435-2.734h.714l.435 2.734h.01l.41-2.734h.714l-.673 3.696h-.833l-.415-2.681h-.01l-.414 2.681h-.833m5.543-3.696v.611h-1.32v.87h1.242v.61h-1.242v.995h1.372v.61h-2.117V9.146m3.235 1.615h.31c.357 0 .56-.155.56-.554 0-.341-.182-.512-.518-.512h-.352v1.066zm-.746-1.615h1.377c.61 0 .984.321.984.953 0 .492-.197.823-.616.91v.011c.507.068.585.347.595 1.129.005.388.026.59.166.662v.031h-.808c-.072-.103-.088-.243-.093-.388l-.02-.71c-.011-.289-.14-.465-.44-.465h-.4v1.563h-.745V9.146zm-9.748 6.478h.331c.295 0 .497-.176.497-.553 0-.363-.145-.57-.518-.57h-.31v1.123zm-.746-1.672h1.305c.756 0 1.014.554 1.014 1.108 0 .766-.47 1.113-1.175 1.113h-.398v1.476h-.746v-3.697zm3.432 1.616h.31c.358 0 .56-.156.56-.554 0-.342-.181-.513-.518-.513h-.352v1.067zm-.745-1.616h1.377c.61 0 .983.321.983.953 0 .492-.197.823-.616.911v.01c.507.068.585.347.595 1.129.006.388.026.59.166.662v.032h-.808c-.072-.104-.088-.244-.093-.389l-.02-.709c-.01-.29-.14-.466-.44-.466h-.399v1.564H8.46v-3.697zm2.913 3.697h.746v-3.697h-.746m2.879 1.248c0-.539-.11-.771-.446-.771-.377 0-.466.378-.466 1.423 0 1.118.156 1.32.477 1.32.269 0 .466-.14.466-.937h.745c0 .798-.197 1.486-1.175 1.486-1.118 0-1.258-.797-1.258-1.92 0-1.124.14-1.921 1.258-1.921 1.066 0 1.144.781 1.144 1.32h-.745zm3.265-1.248v.611h-1.32v.87h1.243v.61h-1.243v.995h1.372v.61h-2.117v-3.696"/></g></symbol><symbol viewBox="0 0 24 24" id="badge-SB" xmlns="http://www.w3.org/2000/svg"><defs><path id="ea" d="M0 22.333h23.974V.24H0z"/></defs><g fill="none" fill-rule="evenodd"><path fill="#FFC20E" d="M0 10.422h23.974V-.667H0"/><path fill="#231F20" d="M1.627 9.986l1.2 11.441 20.145-2.113-1.2-11.44"/><path fill="#ED1C24" d="M1.027 9.442L21.17 7.329l1.202 11.44-20.145 2.114"/><g transform="translate(0 -.906)"><path d="M5.966 16.173l.243 2.347c.306-.042.497-.11.573-.206.076-.095.096-.312.061-.65l-.08-.783c-.038-.359-.099-.572-.182-.64-.084-.069-.289-.091-.615-.068zm-.328-3.17l.193 1.865a6.57 6.57 0 0 1 .217-.028c.214-.022.345-.09.393-.2.048-.112.046-.416-.005-.914-.027-.262-.07-.443-.13-.544-.059-.1-.129-.16-.21-.18-.08-.02-.233-.02-.458 0zm-2.329-1.21l2.176-.225c.687-.071 1.213-.071 1.578-.001.365.07.674.257.925.56.251.305.414.818.49 1.543.05.49.009.84-.125 1.05-.134.209-.422.389-.863.539.516.062.877.215 1.084.461.207.246.339.642.395 1.188l.08.777c.06.567.038.994-.063 1.28a1.056 1.056 0 0 1-.561.624c-.273.13-.848.24-1.726.33l-2.523.261-.867-8.387zm10.754-1.112l.58 5.605c.065.636.09 1.084.076 1.346-.015.262-.11.538-.286.83a1.92 1.92 0 0 1-.742.7c-.319.175-.705.285-1.157.332-.5.052-.951.015-1.352-.112-.4-.125-.71-.311-.927-.558a1.803 1.803 0 0 1-.424-.807c-.065-.292-.146-.911-.244-1.857l-.513-4.963 2.18-.226.651 6.289c.038.366.082.599.132.696.05.098.136.14.257.128.138-.014.221-.08.25-.196.027-.116.02-.383-.023-.801l-.64-6.18 2.182-.226zm5.639-.583l-1.037 5.516.314 3.036-2.02.209-.315-3.036-2.087-5.194 2.004-.206c.482 1.604.773 2.688.872 3.25.028-.908.116-2.03.265-3.368l2.004-.208z" fill="#FFF"/><path d="M3.696 3.674c-.036-.454-.278-.587-.484-.587-.293 0-.454.191-.454.521 0 .903 1.848 1.335 1.848 2.772 0 .873-.587 1.357-1.438 1.357-.843 0-1.327-.675-1.364-1.466l.865-.125c.037.535.25.8.543.8.316 0 .528-.17.528-.485 0-1.049-1.848-1.327-1.848-2.846 0-.843.513-1.32 1.408-1.32.741 0 1.181.536 1.262 1.284l-.866.095zM6 4.745h.352c.594 0 .778-.184.778-.814 0-.63-.184-.814-.778-.814h-.352v1.628zm-.91 2.92V2.367h1.306c1.122 0 1.643.433 1.643 1.563s-.52 1.562-1.643 1.562h-.396v2.171h-.91zm3.345 0V2.367h2.435v.793H9.343v1.364h1.174v.792H9.343v1.555h1.628v.792m2.164-3.528v-.41c0-.448-.206-.639-.44-.639-.367 0-.485.191-.485.587v2.684c0 .396.118.587.485.587.33 0 .44-.19.44-.535v-.638h.91v.608c0 .749-.441 1.357-1.35 1.357-.954 0-1.394-.608-1.394-1.357V3.652c0-.748.44-1.357 1.394-1.357.909 0 1.35.66 1.35 1.452v.39h-.91z" fill="#231F20"/><mask id="eb" fill="#fff"><use xlink:href="#ea"/></mask><path fill="#231F20" mask="url(#eb)" d="M14.652 7.664h.91V2.368h-.91m2.552 3.33h.734l-.36-2.273h-.014l-.36 2.274zm-.293 1.966h-.88l.975-5.295h1.13l.975 5.295h-.88L18.07 6.49h-.998l-.161 1.173zm2.676 0V2.368h.91v4.504h1.43v.792"/></g></g></symbol></svg>